<?xml version="1.0" encoding="UTF-8"?>
<svg width="70px" height="70px" viewBox="0 0 70 70" version="1.1" xmlns="http://www.w3.org/2000/svg" xmlns:xlink="http://www.w3.org/1999/xlink">
    <title>Play Button</title>
    <g id="Mockups" stroke="none" stroke-width="1" fill="none" fill-rule="evenodd">
        <g id="Splash" transform="translate(-1085.000000, -639.000000)">
            <g id="Form" transform="translate(462.000000, 600.000000)">
                <g id="Button" transform="translate(612.000000, 40.000000)">
                    <g id="Icon" transform="translate(12.000000, 0.000000)">
                        <circle id="Oval-Copy" stroke-opacity="0.37" stroke="#6468AA" stroke-width="0.605000019" cx="34" cy="34" r="34"></circle>
                        <circle id="Oval-Copy-2" stroke-opacity="0.57" stroke="#6468AA" stroke-width="0.5" cx="34" cy="34" r="28"></circle>
                        <path d="M34.0999996,57.1999992 C46.8577771,57.1999992 57.1999992,46.8577771 57.1999992,34.0999996 C57.1999992,21.3422221 46.8577771,11 34.0999996,11 C21.3422221,11 11,21.3422221 11,34.0999996 C11,46.8577771 21.3422221,57.1999992 34.0999996,57.1999992 Z" id="Oval" fill="#6468AA"></path>
                        <path d="M41.6439221,33.7980388 C41.5788898,33.7523266 38.0864167,31.3078229 31.1665029,26.4645277 C31.0555868,26.3871591 30.9117932,26.3790923 30.79329,26.4417938 C30.6744255,26.5052287 30.5999997,26.6298983 30.5999997,26.7663017 L30.5999997,41.4333239 C30.5999997,41.5697272 30.6744255,41.6947636 30.79329,41.7581985 C30.8460384,41.7860658 30.9038448,41.7999995 30.96129,41.7999995 C31.0331868,41.7999995 31.1047222,41.7779989 31.1665029,41.7350979 C38.0861759,36.8918027 41.5786489,34.447299 41.6439221,34.4015868 C41.7418317,34.3330184 41.7999995,34.220449 41.7999995,34.0998128 C41.7999995,33.9791765 41.7414704,33.8666071 41.6439221,33.7980388 Z" id="Path" fill="#F8F6F8" fill-rule="nonzero"></path>
                    </g>
                </g>
            </g>
        </g>
    </g>
</svg>
